<?xml version="1.0" standalone="no"?>
<!DOCTYPE svg PUBLIC "-//W3C//DTD SVG 20010904//EN"
 "http://www.w3.org/TR/2001/REC-SVG-20010904/DTD/svg10.dtd">
<svg version="1.0" xmlns="http://www.w3.org/2000/svg"
 width="805.000000pt" height="422.000000pt" viewBox="0 0 805.000000 422.000000"
 preserveAspectRatio="xMidYMid meet">
<metadata>
Created by potrace 1.15, written by Peter Selinger 2001-2017
</metadata>
<g transform="translate(0.000000,422.000000) scale(0.100000,-0.100000)"
fill="#000000" stroke="none">
<path d="M2580 3592 c-69 -32 -116 -99 -165 -236 -48 -132 -73 -264 -86 -451
-12 -150 -14 -162 -38 -188 -77 -85 -194 -74 -221 21 -5 20 -10 78 -10 129 l0
91 109 4 c126 4 151 16 151 75 l0 33 -75 0 -75 0 43 53 c55 68 88 146 95 224
9 120 -44 193 -127 177 -85 -17 -181 -164 -223 -339 -11 -49 -22 -96 -24 -102
-2 -8 -20 -13 -47 -13 -51 0 -67 -13 -67 -55 0 -41 16 -55 62 -55 l38 0 0 -84
0 -83 -63 -67 c-46 -49 -69 -66 -89 -66 -18 0 -29 7 -33 21 -4 12 8 98 26 191
33 164 33 170 15 183 -20 15 -73 10 -92 -9 -6 -6 -26 -56 -44 -111 -49 -151
-96 -235 -131 -235 -11 0 -19 7 -20 18 -3 50 5 108 27 211 18 81 22 117 15
124 -14 14 -72 13 -99 -2 -27 -14 -59 -113 -75 -226 -11 -81 -15 -93 -48 -127
-38 -40 -82 -51 -93 -22 -6 16 3 89 28 232 9 45 13 89 9 97 -6 18 -44 29 -78
23 -18 -4 -26 0 -30 13 -9 26 -39 32 -95 19 -63 -15 -133 -65 -176 -126 -38
-54 -74 -157 -74 -213 0 -169 148 -248 264 -141 l42 39 18 -30 c40 -67 118
-74 196 -18 l42 31 27 -32 c54 -64 142 -42 185 47 23 46 36 54 36 22 0 -37 30
-87 61 -99 34 -14 96 -7 142 17 17 8 55 38 84 66 35 33 53 44 53 34 0 -29 82
-104 125 -116 75 -20 160 -7 211 34 l29 23 15 -31 c17 -37 47 -45 91 -26 33
13 51 42 69 109 16 62 84 201 109 224 35 32 40 8 21 -107 -23 -145 -10 -205
51 -226 62 -22 127 -7 193 44 l45 34 32 -30 c74 -69 212 -76 332 -15 49 25 67
30 67 20 0 -23 47 -64 73 -64 36 0 53 26 87 129 17 52 42 116 57 142 28 53 69
96 80 86 3 -4 -2 -58 -12 -121 -16 -96 -17 -121 -6 -156 17 -58 59 -83 127
-76 64 5 96 22 164 83 40 35 55 44 58 33 3 -8 23 -34 46 -56 80 -81 203 -85
300 -10 l34 26 17 -26 c42 -64 142 -68 221 -8 46 35 46 35 68 16 78 -72 209
-81 299 -21 55 36 92 103 82 148 -10 48 -31 46 -86 -9 -51 -51 -95 -68 -144
-56 -103 26 -75 296 31 296 26 0 27 -1 21 -50 -7 -56 8 -80 48 -80 52 0 89 97
62 162 -19 45 -41 65 -84 77 -82 23 -192 -32 -242 -121 -30 -53 -57 -163 -48
-198 6 -23 -52 -80 -81 -80 -49 0 -53 46 -17 228 28 139 27 171 -8 174 -38 2
-71 -3 -84 -14 -18 -15 -41 -100 -61 -220 -17 -102 -17 -102 -60 -135 -35 -27
-53 -33 -92 -33 -41 0 -52 4 -74 30 -14 17 -27 45 -30 63 -14 88 -16 127 -10
165 l6 40 108 4 c125 4 153 18 148 72 l-3 31 -72 3 -72 3 50 65 c136 180 105
426 -49 384 -89 -23 -170 -152 -219 -343 l-27 -107 -42 0 c-51 0 -66 -16 -62
-67 3 -38 4 -38 49 -41 l46 -3 -2 -86 -2 -85 -61 -65 c-51 -54 -66 -64 -89
-61 -38 4 -40 31 -12 165 38 191 29 236 -48 236 -76 0 -156 -67 -217 -182 -41
-76 -45 -62 -16 57 25 103 25 122 3 124 -48 4 -80 -5 -100 -27 -23 -26 -48
-122 -59 -228 -6 -61 -10 -71 -38 -91 -91 -69 -196 -87 -251 -44 l-27 21 67
23 c121 41 180 107 179 204 0 63 -21 103 -67 127 -39 20 -122 19 -169 0 -90
-38 -158 -152 -158 -266 0 -55 -2 -61 -35 -90 -39 -34 -66 -39 -84 -17 -10 12
-7 44 13 152 14 75 26 151 26 169 0 63 -66 87 -142 51 -52 -25 -104 -84 -148
-167 l-39 -74 -1 53 c0 50 3 57 50 110 154 176 240 344 240 470 0 90 -53 162
-117 161 -21 0 -45 -3 -53 -7z m54 -141 c11 -40 -4 -126 -36 -198 -29 -67
-110 -191 -115 -176 -7 20 35 222 62 303 38 111 70 137 89 71z m-436 -116 c-2
-40 -13 -79 -31 -115 -29 -59 -83 -127 -92 -118 -8 8 30 188 50 235 9 21 23
48 31 61 13 20 18 21 31 11 11 -10 14 -28 11 -74z m2020 0 c-6 -73 -46 -159
-94 -206 -39 -38 -40 -35 -18 69 31 153 71 235 102 210 11 -9 13 -27 10 -73z
m-3103 -397 c-3 -13 -14 -67 -25 -121 -11 -54 -24 -106 -29 -115 -17 -31 -49
-54 -73 -50 -82 11 -38 218 61 285 45 31 73 31 66 1z m2025 -8 c21 -39 -8 -89
-72 -121 -52 -27 -70 -25 -63 6 3 14 7 36 10 49 3 14 17 38 31 55 31 37 77 42
94 11z"/>
<path d="M4463 2267 c-2359 -895 -2933 -1115 -2933 -1129 0 -10 3 -18 8 -18 4
0 1328 501 2942 1113 2219 841 2936 1117 2938 1130 2 9 -2 17 -10 16 -7 0
-1333 -501 -2945 -1112z"/>
<path d="M4463 3313 c-71 -14 -99 -111 -45 -153 22 -18 36 -21 75 -17 56 5 84
27 93 74 8 44 -10 79 -49 93 -31 10 -36 10 -74 3z"/>
<path d="M4856 2045 c-21 -7 -54 -28 -73 -47 -48 -46 -109 -176 -134 -283 -12
-49 -23 -96 -25 -102 -2 -8 -21 -13 -47 -13 -51 0 -67 -13 -67 -55 0 -41 16
-55 61 -55 l37 0 4 -122 c5 -141 27 -207 84 -258 73 -64 199 -66 282 -3 l33
25 34 -31 c65 -57 152 -51 215 14 l33 35 19 -30 c24 -41 76 -64 121 -56 65 12
179 120 240 228 12 21 27 36 32 35 12 -4 61 -84 69 -113 6 -20 3 -22 -48 -20
-66 1 -96 -20 -96 -70 0 -75 115 -111 203 -64 20 11 47 20 59 20 51 0 100 23
153 71 35 33 55 45 55 35 0 -9 19 -36 43 -60 80 -84 196 -88 307 -11 l40 27
34 -30 c101 -88 302 -55 362 60 24 46 14 118 -16 118 -4 0 -31 -25 -62 -55
-54 -53 -57 -55 -110 -55 -44 0 -59 4 -76 23 l-22 23 61 19 c147 43 225 169
171 275 -39 77 -146 96 -243 44 -83 -46 -139 -149 -139 -258 0 -42 -5 -57 -22
-73 -35 -31 -63 -43 -105 -43 -84 0 -113 52 -113 199 l0 99 109 4 c126 4 151
16 151 75 l0 33 -75 0 -75 0 43 53 c88 108 121 251 78 340 -38 78 -107 84
-185 16 -69 -61 -131 -199 -170 -381 -6 -25 -11 -28 -49 -28 -50 0 -67 -13
-67 -51 0 -50 9 -59 56 -59 l44 0 0 -81 0 -82 -44 -51 c-24 -28 -58 -59 -75
-69 l-31 -18 0 36 c0 43 -16 76 -76 157 -24 33 -44 69 -44 79 0 10 9 42 21 71
19 50 20 53 3 65 -21 16 -53 17 -89 3 -20 -8 -37 -34 -76 -117 -52 -112 -145
-252 -185 -278 -34 -22 -63 -19 -69 8 -3 12 5 85 18 161 13 77 22 148 19 158
-4 19 -60 35 -86 25 -9 -4 -17 2 -21 13 -20 63 -178 10 -259 -87 -34 -41 -72
-127 -81 -183 -4 -25 -15 -53 -24 -64 -43 -48 -129 -61 -174 -26 -35 28 -47
76 -47 188 l0 92 104 0 c95 0 107 2 130 23 25 22 30 35 27 70 -1 15 -12 17
-76 17 l-75 0 43 53 c85 104 118 239 82 333 -13 35 -25 49 -51 60 -18 8 -35
14 -36 14 -2 -1 -20 -7 -42 -15z m32 -180 c-2 -40 -13 -80 -31 -115 -29 -59
-82 -128 -91 -119 -7 7 32 194 50 238 8 20 22 46 30 59 13 20 18 21 31 11 11
-10 14 -28 11 -74z m1462 14 c0 -66 -33 -148 -82 -203 -22 -26 -42 -45 -44
-43 -2 2 3 41 12 87 16 89 42 166 69 206 24 37 45 15 45 -47z m-1069 -519
c-21 -99 -33 -136 -51 -155 -52 -55 -108 -13 -95 72 8 54 37 128 63 157 23 26
73 56 93 56 15 0 14 -14 -10 -130z m1437 108 c32 -32 -2 -94 -69 -128 -51 -27
-59 -25 -59 9 0 89 82 165 128 119z"/>
</g>
</svg>
